<svg xmlns="http://www.w3.org/2000/svg" height="116.05" width="110" viewBox="0 0 110 116.05078"><g><path fill="#FA4616" d="m54.844 1.156v114.05l26.381-10.42 5.2793-15.211 6.0195 10.811-0.01953 0.0898 16.34-6.17-1.8301-3.7109v-64.479l1.83-3.71-11.01-4.33v58.84l-5.3008 1.0195v-61.939l-12.4-4.8906v69.211l-7.3398 1.4102v-73.5l-17.949-7.071zm-37.66 14.74-0.01953 0.08984 6.0195 10.801 3.791-10.781-9.791-0.10938zm19.711 18.75-7.3398 1.4102v69.199l7.3398-2.0391v-68.57zm-19.91 3.8203-5.1309 0.97852v58.83l5.3008-1.1289v-58.66l-0.16992-0.01953z"/><path fill="#0033a0" d="m54.844 1.156-26.381 10.42 0.04102 0.05078-5.3203 15.16-6.0195-10.811 0.01953-0.08008-16.34 6.17 1.8301 3.709v64.471l-1.8301 3.711 11.01 4.3184v-58.83l5.3008-1.0098v61.932l12.4 4.8887v-69.199l7.3398-1.4102v73.5l17.949 7.06v-114.05zm25.289 9.9492-7.3398 2.041v68.58l7.3398-1.4102v-69.211zm17.701 6.9707-5.3008 1.1504v58.709l5.3008-1.0195v-58.84zm-11.33 71.5-3.7793 10.779 9.7793 0.12109 0.01953-0.0898-6.0195-10.811z"/></g></svg>
